<svg width="135" height="135" viewBox="0 0 135 135" fill="none" xmlns="http://www.w3.org/2000/svg">
	<rect width="135" height="135" rx="67.5" fill="#e63946" />
	<path d="M64.0392 19.2098C63.5159 19.2463 63.0101 19.2027 62.5217 19.079C62.0328 18.9488 61.6422 18.7658 61.3497 18.5298L61.6593 17.7393C61.9369 17.9499 62.2837 18.1164 62.6997 18.2385C63.1157 18.3606 63.5428 18.4064 63.981 18.3759C64.38 18.348 64.7006 18.2797 64.9427 18.1708C65.1849 18.0619 65.3593 17.9248 65.4661 17.7596C65.5724 17.5879 65.6185 17.4007 65.6044 17.1979C65.588 16.9625 65.4962 16.7783 65.3292 16.6453C65.1688 16.5119 64.9613 16.4114 64.7068 16.3437C64.4584 16.269 64.1848 16.2092 63.8859 16.1643C63.587 16.1195 63.2842 16.065 62.9774 16.001C62.6767 15.9299 62.3973 15.8344 62.1391 15.7144C61.8876 15.5939 61.6786 15.4245 61.5122 15.206C61.3453 14.9811 61.2491 14.6854 61.2236 14.3192C61.1989 13.966 61.2679 13.6358 61.4305 13.3287C61.5992 13.0147 61.8703 12.7559 62.2439 12.5523C62.6236 12.3418 63.1143 12.2156 63.716 12.1736C64.115 12.1458 64.5143 12.1705 64.9141 12.2478C65.3138 12.3251 65.6644 12.4518 65.9659 12.6279L65.6968 13.4354C65.3888 13.2597 65.0684 13.1407 64.7354 13.0785C64.402 13.0098 64.0816 12.9861 63.7742 13.0075C63.3883 13.0345 63.0745 13.1056 62.8328 13.2211C62.5911 13.3365 62.4171 13.4801 62.3108 13.6518C62.211 13.8231 62.1681 14.0101 62.1823 14.2129C62.1992 14.4549 62.2878 14.6426 62.4483 14.776C62.6153 14.9089 62.8228 15.0095 63.0707 15.0776C63.3252 15.1453 63.6021 15.2048 63.9014 15.2563C64.2003 15.3011 64.4999 15.3558 64.8002 15.4203C65.1069 15.4844 65.3861 15.5766 65.6377 15.6971C65.8958 15.8171 66.1081 15.9863 66.2745 16.2048C66.4409 16.4232 66.5366 16.7123 66.5617 17.072C66.5859 17.4186 66.5137 17.749 66.345 18.0631C66.1758 18.3707 65.8982 18.6299 65.512 18.8409C65.1318 19.0448 64.6409 19.1678 64.0392 19.2098Z" fill="#1d3557" />
	<path d="M70.1053 19.1448C69.5748 19.1202 69.1053 18.9837 68.6968 18.735C68.2948 18.4867 67.9851 18.1573 67.7678 17.7469C67.5505 17.3365 67.4539 16.8726 67.4778 16.3551C67.5018 15.8377 67.6409 15.3847 67.8951 14.9961C68.1494 14.6075 68.488 14.3114 68.9109 14.1079C69.3407 13.898 69.8208 13.8054 70.3513 13.83C70.8229 13.8518 71.2377 13.9661 71.5956 14.1731C71.9605 14.3737 72.2359 14.6621 72.422 15.0383L71.6834 15.4668C71.525 15.2035 71.324 15.0072 71.0806 14.8778C70.844 14.7421 70.5849 14.6678 70.3033 14.6547C69.9628 14.639 69.6547 14.7002 69.3792 14.8384C69.1037 14.9766 68.881 15.1796 68.7111 15.4474C68.5415 15.7087 68.448 16.0259 68.4308 16.3993C68.4135 16.7726 68.4771 17.1004 68.6215 17.3828C68.766 17.6651 68.969 17.8878 69.2305 18.0509C69.4921 18.2139 69.7931 18.3034 70.1337 18.3191C70.4153 18.3322 70.68 18.2853 70.9278 18.1787C71.1825 18.0657 71.4008 17.8855 71.5829 17.638L72.2792 18.1231C72.0595 18.4739 71.7584 18.7389 71.376 18.9181C71.0005 19.0911 70.5769 19.1666 70.1053 19.1448Z" fill="#1d3557" />
	<path d="M73.2893 19.3515L74.0282 14.1917L74.9238 14.32L74.7231 15.7219L74.6856 15.3589C74.8795 15.0224 75.1587 14.7842 75.5232 14.6443C75.8876 14.5044 76.3165 14.4698 76.8097 14.5404L76.6801 15.4458C76.642 15.4337 76.6036 15.4249 76.5646 15.4193C76.5322 15.4147 76.4997 15.41 76.4673 15.4054C75.9675 15.3338 75.5502 15.4264 75.2154 15.6831C74.8806 15.9398 74.6728 16.3505 74.5919 16.9152L74.2238 19.4853L73.2893 19.3515Z" fill="#1d3557" />
	<path d="M79.1603 20.4999C78.6512 20.3735 78.2271 20.15 77.8878 19.8294C77.5486 19.5087 77.3126 19.1259 77.1799 18.6809C77.0487 18.2295 77.0447 17.7556 77.1679 17.2593C77.2927 16.7566 77.5178 16.3396 77.8432 16.0083C78.1687 15.677 78.5555 15.4521 79.0037 15.3337C79.4535 15.2089 79.933 15.2097 80.442 15.336C80.9447 15.4608 81.3657 15.6835 81.705 16.0042C82.0521 16.32 82.2889 16.6997 82.4153 17.1431C82.5496 17.5818 82.5536 18.0557 82.4272 18.5647C82.3024 19.0674 82.0773 19.4844 81.7519 19.8157C81.4328 20.1486 81.0452 20.3767 80.5891 20.4999C80.1392 20.6246 79.663 20.6247 79.1603 20.4999ZM79.3593 19.6981C79.6838 19.7786 79.9915 19.7773 80.2824 19.6942C80.5796 19.6126 80.8346 19.4563 81.0473 19.2254C81.2615 18.9881 81.4129 18.6912 81.5014 18.3349C81.5914 17.9722 81.5956 17.6422 81.514 17.345C81.434 17.0414 81.2817 16.7841 81.0571 16.5729C80.8389 16.3634 80.5676 16.2184 80.243 16.1378C79.9185 16.0573 79.6108 16.0586 79.3199 16.1417C79.0291 16.2249 78.7741 16.3812 78.5551 16.6105C78.3376 16.8335 78.1838 17.1264 78.0938 17.4891C78.0053 17.8454 78.0035 18.1794 78.0883 18.4909C78.1747 18.7961 78.327 19.0534 78.5452 19.263C78.7634 19.4725 79.0348 19.6175 79.3593 19.6981Z" fill="#1d3557" />
	<path d="M82.8604 21.5631L85.2686 14.7036L86.156 15.0152L83.7479 21.8746L82.8604 21.5631Z" fill="#1d3557" />
	<path d="M85.3342 22.4278L88.0938 15.6724L88.9678 16.0294L86.2082 22.7848L85.3342 22.4278Z" fill="#1d3557" />
	<path d="M90.1372 24.5548L93.7383 18.6875L96.2109 20.2051C96.8368 20.5892 97.3117 21.05 97.6358 21.5874C97.9654 22.1282 98.1261 22.6999 98.1178 23.3025C98.1151 23.9086 97.9354 24.5022 97.5787 25.0833C97.222 25.6645 96.7741 26.0935 96.2349 26.3703C95.7014 26.6505 95.1188 26.7661 94.4874 26.717C93.8615 26.6714 93.2357 26.4565 92.6098 26.0724L90.1372 24.5548ZM91.4229 24.34L93.0071 25.3123C93.4932 25.6107 93.9689 25.7757 94.4341 25.8074C94.9049 25.8425 95.3393 25.7552 95.7372 25.5455C96.1386 25.3303 96.473 25.0048 96.7405 24.5689C97.0115 24.1275 97.1503 23.6819 97.1571 23.2322C97.1639 22.7824 97.045 22.3556 96.8006 21.9517C96.5617 21.5513 96.1992 21.2018 95.7131 20.9035L94.1289 19.9312L91.4229 24.34Z" fill="#1d3557" />
	<path d="M98.4271 30.293C98.0232 29.9573 97.7382 29.571 97.5721 29.1342C97.4059 28.6973 97.36 28.2494 97.4342 27.7904C97.5126 27.3263 97.7155 26.8974 98.0428 26.5036C98.3743 26.1048 98.7589 25.8269 99.1966 25.67C99.6343 25.5131 100.081 25.4789 100.537 25.5674C100.996 25.6509 101.428 25.8605 101.832 26.1962C102.231 26.5277 102.514 26.9118 102.68 27.3487C102.855 27.7847 102.903 28.2301 102.824 28.6849C102.754 29.1389 102.551 29.5678 102.215 29.9717C101.884 30.3705 101.499 30.6484 101.062 30.8053C100.629 30.9664 100.18 31.0031 99.7151 30.9154C99.2553 30.832 98.8259 30.6245 98.4271 30.293ZM98.9558 29.6569C99.2133 29.8709 99.4912 30.0038 99.7897 30.0555C100.093 30.1114 100.391 30.0816 100.683 29.9661C100.98 29.8455 101.246 29.6439 101.481 29.3612C101.72 29.0734 101.867 28.7778 101.923 28.4743C101.984 28.1657 101.958 27.8674 101.848 27.5792C101.742 27.2953 101.561 27.0463 101.304 26.8323C101.046 26.6183 100.768 26.4854 100.47 26.4337C100.171 26.382 99.8733 26.4118 99.5759 26.5231C99.2827 26.6294 99.0165 26.8264 98.7773 27.1141C98.5423 27.3969 98.3952 27.6971 98.3359 28.0149C98.2809 28.3276 98.306 28.626 98.4115 28.9099C98.5169 29.1939 98.6983 29.4429 98.9558 29.6569Z" fill="#1d3557" />
	<path d="M102.007 33.4577L104.605 28.5415L105.201 29.2092L102.826 33.6366L102.544 33.3211L107.258 31.5131L107.788 32.1074L105.432 36.5568L105.157 36.2486L109.851 34.4186L110.414 35.0496L105.229 37.0677L104.626 36.3926L106.746 32.299L106.93 32.5044L102.609 34.1328L102.007 33.4577Z" fill="#1d3557" />
	<path d="M112.738 38.6348C112.969 38.9927 113.103 39.3511 113.139 39.7099C113.18 40.0742 113.109 40.4242 112.928 40.7598C112.747 41.0955 112.441 41.402 112.012 41.6795L109.492 43.307L108.98 42.514L111.408 40.9452C111.833 40.6712 112.084 40.3603 112.164 40.0122C112.247 39.6697 112.168 39.3112 111.926 38.9367C111.744 38.6558 111.531 38.4463 111.286 38.3082C111.04 38.1701 110.773 38.1125 110.483 38.1356C110.198 38.1642 109.895 38.2817 109.575 38.488L107.32 39.9448L106.808 39.1517L111.186 36.3236L111.677 37.0836L110.496 37.8466L110.73 37.52C111.109 37.4782 111.474 37.5544 111.826 37.7486C112.178 37.9428 112.482 38.2382 112.738 38.6348Z" fill="#1d3557" />
	<path d="M113.32 51.9494C113.162 51.4886 113.183 51.0401 113.384 50.6041C113.6 50.1625 113.956 49.8573 114.449 49.6885C114.943 49.5198 115.402 49.5465 115.828 49.7688C116.253 49.9911 116.544 50.3326 116.702 50.7934C116.854 51.2378 116.827 51.6697 116.621 52.0893C116.421 52.5253 116.074 52.8277 115.58 52.9965C115.086 53.1652 114.618 53.1413 114.177 52.9246C113.757 52.7188 113.472 52.3937 113.32 51.9494Z" fill="#1d3557" />
	<path d="M115.659 63.9391C115.623 63.4146 115.666 62.9076 115.79 62.4179C115.921 61.9278 116.104 61.5361 116.34 61.2429L117.133 61.5531C116.922 61.8314 116.755 62.1791 116.633 62.5961C116.51 63.0132 116.465 63.4413 116.495 63.8806C116.523 64.2806 116.592 64.6019 116.701 64.8446C116.811 65.0873 116.948 65.2622 117.114 65.3692C117.286 65.4757 117.473 65.5219 117.677 65.5077C117.913 65.4911 118.097 65.3992 118.231 65.2317C118.364 65.0708 118.465 64.8628 118.533 64.6077C118.608 64.3587 118.667 64.0844 118.712 63.7847C118.757 63.4851 118.812 63.1815 118.876 62.874C118.947 62.5725 119.043 62.2924 119.163 62.0336C119.284 61.7814 119.454 61.5718 119.672 61.405C119.898 61.2376 120.194 61.1411 120.561 61.1154C120.915 61.0906 121.246 61.1597 121.554 61.3226C121.869 61.4917 122.129 61.7634 122.333 62.1378C122.544 62.5184 122.671 63.0102 122.713 63.6134C122.741 64.0134 122.716 64.4137 122.639 64.8144C122.561 65.2152 122.434 65.5666 122.258 65.8689L121.448 65.5994C121.625 65.2906 121.744 64.9693 121.806 64.6355C121.875 64.3013 121.898 63.9801 121.877 63.6719C121.85 63.2851 121.778 62.9706 121.663 62.7283C121.547 62.486 121.403 62.3116 121.231 62.2051C121.059 62.1051 120.871 62.0622 120.668 62.0765C120.426 62.0934 120.237 62.1824 120.104 62.3433C119.971 62.5107 119.87 62.7187 119.802 62.9673C119.734 63.2224 119.674 63.5 119.623 63.8001C119.578 64.0997 119.523 64.4 119.458 64.701C119.394 65.0086 119.302 65.2885 119.181 65.5407C119.061 65.7995 118.891 66.0123 118.672 66.1792C118.454 66.346 118.164 66.4421 117.803 66.4673C117.456 66.4917 117.124 66.4193 116.81 66.2503C116.501 66.0808 116.241 65.8025 116.03 65.4154C115.825 65.0344 115.702 64.5423 115.659 63.9391Z" fill="#1d3557" />
	<path d="M115.714 70.0162C115.738 69.4857 115.874 69.016 116.122 68.607C116.369 68.2046 116.698 67.8945 117.108 67.6765C117.518 67.4586 117.982 67.3612 118.5 67.3843C119.017 67.4075 119.47 67.5459 119.859 67.7995C120.248 68.0532 120.545 68.3913 120.749 68.8139C120.96 69.2433 121.053 69.7233 121.029 70.2539C121.008 70.7255 120.895 71.1404 120.688 71.4987C120.488 71.8639 120.2 72.1398 119.824 72.3264L119.395 71.5885C119.658 71.4297 119.854 71.2284 119.983 70.9848C120.118 70.748 120.192 70.4888 120.205 70.2072C120.22 69.8666 120.158 69.5586 120.019 69.2833C119.881 69.0081 119.677 68.7857 119.409 68.6162C119.148 68.447 118.83 68.354 118.457 68.3373C118.084 68.3206 117.756 68.3847 117.474 68.5296C117.192 68.6745 116.969 68.8779 116.807 69.1397C116.644 69.4015 116.555 69.7027 116.54 70.0433C116.527 70.325 116.574 70.5896 116.682 70.8372C116.795 71.0917 116.975 71.3097 117.223 71.4915L116.739 72.1885C116.388 71.9693 116.123 71.6687 115.943 71.2866C115.769 70.9113 115.693 70.4878 115.714 70.0162Z" fill="#1d3557" />
	<path d="M115.513 73.2003L120.674 73.9311L120.547 74.8269L119.145 74.6284L119.508 74.5904C119.845 74.7838 120.083 75.0626 120.224 75.4268C120.364 75.791 120.4 76.2198 120.33 76.7132L119.424 76.5849C119.436 76.5469 119.445 76.5084 119.45 76.4695C119.455 76.437 119.46 76.4045 119.464 76.3721C119.535 75.8722 119.442 75.4551 119.184 75.1207C118.927 74.7863 118.516 74.5791 117.951 74.4991L115.381 74.1351L115.513 73.2003Z" fill="#1d3557" />
	<path d="M114.368 79.0727C114.494 78.5635 114.716 78.139 115.036 77.7992C115.357 77.4595 115.739 77.2229 116.184 77.0895C116.635 76.9576 117.109 76.9529 117.605 77.0753C118.108 77.1993 118.526 77.4237 118.858 77.7486C119.189 78.0735 119.415 78.46 119.534 78.9081C119.659 79.3577 119.659 79.8371 119.534 80.3464C119.41 80.8493 119.188 81.2706 118.868 81.6103C118.552 81.958 118.173 82.1954 117.73 82.3225C117.291 82.4575 116.818 82.4622 116.308 82.3366C115.805 82.2126 115.388 81.9882 115.056 81.6633C114.723 81.3447 114.494 80.9575 114.37 80.5015C114.245 80.0519 114.244 79.5756 114.368 79.0727ZM115.17 79.2705C115.09 79.5952 115.092 79.9028 115.175 80.1936C115.258 80.4907 115.414 80.7454 115.645 80.9577C115.883 81.1716 116.18 81.3225 116.537 81.4104C116.899 81.4999 117.229 81.5036 117.527 81.4215C117.83 81.341 118.087 81.1883 118.298 80.9634C118.507 80.7449 118.652 80.4733 118.732 80.1486C118.812 79.824 118.81 79.5163 118.726 79.2255C118.643 78.9348 118.486 78.6801 118.256 78.4614C118.033 78.2443 117.74 78.091 117.377 78.0015C117.021 77.9136 116.687 77.9123 116.375 77.9976C116.07 78.0845 115.813 78.2372 115.604 78.4557C115.395 78.6742 115.25 78.9458 115.17 79.2705Z" fill="#1d3557" />
	<path d="M113.358 82.7851L120.257 85.1621L119.949 86.0547L113.05 83.6778L113.358 82.7851Z" fill="#1d3557" />
	<path d="M112.455 85.2363L119.216 87.9829L118.86 88.8576L112.1 86.111L112.455 85.2363Z" fill="#1d3557" />
	<path d="M110.317 90.0281L116.169 93.6079L114.66 96.0739C114.278 96.6981 113.82 97.172 113.285 97.4957C112.747 97.825 112.177 97.9859 111.577 97.9785C110.973 97.9767 110.381 97.7985 109.801 97.4439C109.222 97.0893 108.794 96.6436 108.517 96.1068C108.237 95.5755 108.121 94.9952 108.169 94.366C108.214 93.7423 108.427 93.1183 108.809 92.4941L110.317 90.0281ZM110.533 91.309L109.567 92.8889C109.27 93.3737 109.106 93.848 109.075 94.3116C109.041 94.7808 109.129 95.2134 109.338 95.6097C109.553 96.0093 109.878 96.342 110.313 96.608C110.753 96.8773 111.197 97.015 111.645 97.0211C112.094 97.0272 112.519 96.9082 112.921 96.664C113.319 96.4254 113.667 96.0637 113.964 95.5789L114.93 93.9989L110.533 91.309Z" fill="#1d3557" />
	<path d="M104.598 98.3459C104.933 97.9426 105.319 97.6581 105.755 97.4923C106.192 97.3265 106.639 97.2807 107.097 97.355C107.561 97.4335 107.989 97.6362 108.382 97.9632C108.781 98.2944 109.058 98.6786 109.214 99.1158C109.371 99.553 109.405 99.9992 109.317 100.454C109.233 100.914 109.024 101.345 108.688 101.748C108.357 102.146 107.973 102.428 107.537 102.594C107.101 102.769 106.656 102.817 106.202 102.738C105.749 102.668 105.321 102.465 104.917 102.129C104.519 101.798 104.242 101.414 104.085 100.977C103.924 100.545 103.888 100.096 103.975 99.6321C104.059 99.1729 104.266 98.7441 104.598 98.3459ZM105.233 98.8741C105.019 99.1312 104.886 99.4088 104.834 99.7068C104.778 100.01 104.808 100.308 104.923 100.6C105.044 100.896 105.245 101.161 105.527 101.396C105.815 101.635 106.11 101.782 106.413 101.838C106.721 101.899 107.019 101.873 107.307 101.763C107.59 101.658 107.839 101.477 108.053 101.22C108.267 100.963 108.4 100.685 108.451 100.387C108.503 100.089 108.473 99.7915 108.362 99.4944C108.256 99.2015 108.06 98.9356 107.772 98.6966C107.49 98.4619 107.19 98.3148 106.873 98.2555C106.56 98.2004 106.262 98.2255 105.979 98.3307C105.695 98.4359 105.446 98.617 105.233 98.8741Z" fill="#1d3557" />
	<path d="M101.444 101.947L106.364 104.538L105.698 105.135L101.266 102.766L101.581 102.484L103.397 107.194L102.803 107.726L98.3503 105.377L98.658 105.101L100.495 109.792L99.8653 110.357L97.8391 105.174L98.5132 104.571L102.61 106.684L102.405 106.868L100.77 102.55L101.444 101.947Z" fill="#1d3557" />
	<path d="M96.2686 112.647C95.9106 112.878 95.5524 113.011 95.194 113.046C94.8301 113.086 94.4808 113.014 94.146 112.833C93.8113 112.651 93.5058 112.345 93.2297 111.916L91.6099 109.396L92.403 108.886L93.9643 111.315C94.2369 111.739 94.5469 111.991 94.8943 112.072C95.2361 112.155 95.5943 112.077 95.9688 111.836C96.2497 111.656 96.4593 111.443 96.5978 111.198C96.7363 110.954 96.7943 110.687 96.7719 110.397C96.744 110.112 96.6273 109.809 96.422 109.49L94.9722 107.235L95.7652 106.725L98.5799 111.103L97.8199 111.592L97.0604 110.41L97.3862 110.645C97.4271 111.023 97.3502 111.388 97.1554 111.739C96.9607 112.09 96.6651 112.393 96.2686 112.647Z" fill="#1d3557" />
	<path d="M82.9727 113.328C83.4353 113.172 83.8848 113.195 84.321 113.398C84.7627 113.617 85.0671 113.974 85.2341 114.47C85.401 114.966 85.3722 115.426 85.1475 115.851C84.9227 116.277 84.5791 116.567 84.1164 116.723C83.6703 116.873 83.2374 116.844 82.8177 116.636C82.3815 116.433 82.08 116.084 81.913 115.589C81.746 115.093 81.7721 114.624 81.9913 114.182C82.1994 113.763 82.5266 113.478 82.9727 113.328Z" fill="#1d3557" />
	<path d="M70.9945 115.635C71.519 115.598 72.026 115.641 72.5157 115.765C73.0058 115.896 73.3974 116.079 73.6907 116.316L73.3805 117.108C73.1022 116.897 72.7545 116.73 72.3375 116.608C71.9204 116.486 71.4922 116.44 71.053 116.471C70.653 116.499 70.3317 116.567 70.089 116.676C69.8463 116.786 69.6714 116.923 69.5644 117.089C69.4579 117.261 69.4117 117.449 69.4259 117.652C69.4424 117.888 69.5344 118.072 69.7019 118.206C69.8628 118.339 70.0708 118.44 70.3259 118.508C70.5749 118.583 70.8492 118.643 71.1489 118.687C71.4485 118.732 71.7521 118.787 72.0596 118.851C72.3611 118.922 72.6412 119.018 72.9 119.138C73.1522 119.259 73.3618 119.429 73.5286 119.648C73.696 119.873 73.7925 120.169 73.8182 120.536C73.843 120.891 73.7739 121.221 73.611 121.529C73.4419 121.844 73.1702 122.104 72.7958 122.308C72.4152 122.519 71.9234 122.646 71.3202 122.688C70.9202 122.716 70.5199 122.691 70.1192 122.614C69.7184 122.536 69.367 122.41 69.0647 122.233L69.3342 121.424C69.643 121.6 69.9643 121.719 70.2981 121.781C70.6323 121.85 70.9535 121.874 71.2617 121.852C71.6485 121.825 71.963 121.753 72.2053 121.638C72.4476 121.522 72.622 121.378 72.7285 121.206C72.8285 121.034 72.8714 120.847 72.8571 120.643C72.8402 120.401 72.7512 120.213 72.5903 120.079C72.4229 119.946 72.2149 119.845 71.9663 119.777C71.7112 119.709 71.4336 119.649 71.1335 119.598C70.8339 119.553 70.5336 119.498 70.2326 119.434C69.925 119.369 69.6451 119.277 69.3929 119.156C69.1341 119.036 68.9213 118.866 68.7544 118.648C68.5876 118.429 68.4915 118.139 68.4663 117.778C68.4419 117.431 68.5143 117.1 68.6833 116.785C68.8528 116.476 69.1311 116.216 69.5182 116.005C69.8992 115.8 70.3913 115.677 70.9945 115.635Z" fill="#1d3557" />
	<path d="M64.9186 115.703C65.4492 115.726 65.9191 115.861 66.3284 116.108C66.7312 116.355 67.0419 116.684 67.2605 117.093C67.4791 117.503 67.5772 117.967 67.5549 118.484C67.5325 119.002 67.3949 119.455 67.1418 119.845C66.8888 120.234 66.5511 120.531 66.1288 120.736C65.6997 120.947 65.2199 121.041 64.6893 121.019C64.2177 120.998 63.8025 120.885 63.4439 120.679C63.0785 120.48 62.8021 120.192 62.6149 119.817L63.3521 119.386C63.5113 119.649 63.7129 119.844 63.9567 119.973C64.1937 120.108 64.4531 120.181 64.7347 120.194C65.0753 120.208 65.3832 120.146 65.6582 120.007C65.9333 119.868 66.1554 119.664 66.3244 119.396C66.4932 119.134 66.5857 118.817 66.6018 118.443C66.6179 118.07 66.5533 117.742 66.4079 117.46C66.2626 117.178 66.0589 116.956 65.7968 116.794C65.5348 116.632 65.2334 116.543 64.8928 116.529C64.6111 116.517 64.3466 116.564 64.0991 116.672C63.8449 116.785 63.6271 116.966 63.4457 117.214L62.748 116.731C62.9666 116.38 63.2668 116.114 63.6486 115.934C64.0236 115.759 64.447 115.683 64.9186 115.703Z" fill="#1d3557" />
	<path d="M61.7347 115.504L61.0049 120.664L60.1092 120.538L60.3075 119.136L60.3455 119.498C60.1522 119.835 59.8735 120.074 59.5094 120.214C59.1452 120.355 58.7165 120.39 58.2232 120.32L58.3513 119.415C58.3893 119.427 58.4278 119.436 58.4667 119.441C58.4992 119.446 58.5316 119.45 58.5641 119.455C59.0639 119.526 59.4809 119.432 59.8152 119.175C60.1495 118.918 60.3566 118.507 60.4365 117.942L60.8 115.372L61.7347 115.504Z" fill="#1d3557" />
	<path d="M55.8702 114.376C56.3797 114.501 56.8046 114.723 57.145 115.042C57.4854 115.361 57.7227 115.743 57.857 116.188C57.9897 116.639 57.9953 117.113 57.8739 117.61C57.7508 118.113 57.5272 118.531 57.2029 118.863C56.8786 119.195 56.4926 119.422 56.0448 119.542C55.5954 119.668 55.116 119.669 54.6065 119.544C54.1033 119.421 53.6816 119.2 53.3412 118.881C52.9929 118.566 52.7548 118.187 52.6269 117.744C52.4911 117.306 52.4855 116.832 52.61 116.323C52.7331 115.819 52.9567 115.402 53.281 115.069C53.5989 114.735 53.9857 114.506 54.4414 114.381C54.8908 114.255 55.3671 114.253 55.8702 114.376ZM55.674 115.178C55.3492 115.099 55.0415 115.101 54.7509 115.186C54.454 115.268 54.1996 115.425 53.9877 115.657C53.7742 115.895 53.6239 116.192 53.5367 116.549C53.4479 116.912 53.4449 117.242 53.5275 117.539C53.6086 117.842 53.7618 118.099 53.9871 118.31C54.206 118.518 54.4779 118.662 54.8027 118.742C55.1275 118.821 55.4352 118.819 55.7258 118.735C56.0163 118.65 56.2707 118.493 56.489 118.263C56.7057 118.039 56.8584 117.746 56.9472 117.383C57.0344 117.026 57.0351 116.692 56.9492 116.381C56.8617 116.076 56.7085 115.82 56.4896 115.611C56.2707 115.402 55.9988 115.258 55.674 115.178Z" fill="#1d3557" />
	<path d="M52.1415 113.361L49.7754 120.264L48.8823 119.958L51.2484 113.055L52.1415 113.361Z" fill="#1d3557" />
	<path d="M49.6675 112.504L46.8945 119.291L46.0165 118.932L48.7895 112.145L49.6675 112.504Z" fill="#1d3557" />
	<path d="M44.906 110.346L41.3262 116.198L38.8601 114.689C38.236 114.307 37.762 113.849 37.4383 113.314C37.1091 112.775 36.9482 112.206 36.9556 111.605C36.9574 111.002 37.1356 110.41 37.4902 109.83C37.8447 109.251 38.2904 108.823 38.8273 108.546C39.3586 108.266 39.9388 108.15 40.5681 108.198C41.1918 108.242 41.8158 108.456 42.4399 108.838L44.906 110.346ZM43.6251 110.562L42.0452 109.595C41.5603 109.299 41.0861 109.135 40.6225 109.104C40.1533 109.07 39.7206 109.158 39.3244 109.367C38.9248 109.582 38.592 109.907 38.3261 110.342C38.0568 110.782 37.9191 111.226 37.913 111.674C37.9069 112.122 38.0259 112.547 38.2701 112.95C38.5086 113.348 38.8704 113.696 39.3552 113.993L40.9351 114.959L43.6251 110.562Z" fill="#1d3557" />
	<path d="M36.5504 104.634C36.9543 104.97 37.2393 105.356 37.4055 105.793C37.5716 106.23 37.6176 106.678 37.5433 107.137C37.4649 107.601 37.2621 108.03 36.9348 108.424C36.6033 108.822 36.2187 109.1 35.781 109.257C35.3433 109.414 34.8966 109.448 34.4409 109.36C33.981 109.276 33.5492 109.067 33.1453 108.731C32.7465 108.4 32.464 108.015 32.2978 107.579C32.1225 107.143 32.0744 106.697 32.1537 106.242C32.2237 105.788 32.4265 105.359 32.7622 104.956C33.0937 104.557 33.4783 104.279 33.916 104.122C34.3487 103.961 34.7975 103.924 35.2624 104.012C35.7223 104.095 36.1516 104.303 36.5504 104.634ZM36.0217 105.27C35.7643 105.056 35.4863 104.923 35.1879 104.872C34.8844 104.816 34.5864 104.846 34.2941 104.961C33.9975 105.082 33.7318 105.283 33.4968 105.566C33.2576 105.854 33.1101 106.149 33.0541 106.453C32.994 106.762 33.0192 107.06 33.1297 107.348C33.2351 107.632 33.4165 107.881 33.674 108.095C33.9315 108.309 34.2094 108.442 34.5079 108.494C34.8063 108.545 35.1043 108.515 35.4017 108.404C35.6949 108.298 35.961 108.101 36.2002 107.813C36.4352 107.53 36.5823 107.23 36.6416 106.912C36.6967 106.6 36.6715 106.301 36.5661 106.017C36.4606 105.733 36.2792 105.484 36.0217 105.27Z" fill="#1d3557" />
	<path d="M32.9712 101.483L30.4121 106.409L29.8125 105.747L32.1526 101.311L32.436 101.623L27.7435 103.462L27.2098 102.872L29.5301 98.414L29.8069 98.7197L25.1342 100.58L24.5675 99.9539L29.7293 97.9026L30.3355 98.5722L28.2483 102.674L28.0638 102.47L32.365 100.814L32.9712 101.483Z" fill="#1d3557" />
	<path d="M22.1733 96.4023C21.9389 96.0444 21.8022 95.6854 21.7632 95.3254C21.7206 94.9598 21.7893 94.608 21.9692 94.2699C22.1491 93.9318 22.4538 93.6221 22.8834 93.3408L25.403 91.6911L25.9223 92.4841L23.4935 94.0744C23.0695 94.3521 22.8186 94.6658 22.7408 95.0158C22.6594 95.3602 22.7414 95.7196 22.9866 96.0941C23.1705 96.375 23.386 96.584 23.6332 96.7212C23.8804 96.8583 24.1492 96.9144 24.4397 96.8895C24.7266 96.859 25.0298 96.7391 25.3492 96.53L27.6045 95.0533L28.1238 95.8464L23.7454 98.7132L23.2478 97.9532L24.4291 97.1797L24.1963 97.5091C23.8162 97.5535 23.4489 97.4792 23.0945 97.2864C22.74 97.0936 22.433 96.7989 22.1733 96.4023Z" fill="#1d3557" />
	<path d="M21.032 81.2793C21.1732 81.7453 21.1361 82.1927 20.9208 82.6215C20.6888 83.0553 20.3231 83.3478 19.8237 83.4991C19.3244 83.6505 18.8662 83.6076 18.449 83.3706C18.0319 83.1335 17.7527 82.782 17.6114 82.3159C17.4752 81.8665 17.5174 81.4357 17.7378 81.0236C17.9531 80.5949 18.3105 80.3049 18.8098 80.1535C19.3092 80.0022 19.7757 80.0425 20.2095 80.2745C20.6216 80.495 20.8958 80.8299 21.032 81.2793Z" fill="#1d3557" />
	<path d="M19.136 69.2358C19.1555 69.7599 19.0956 70.2641 18.9561 70.7482C18.8101 71.2326 18.6144 71.6171 18.3692 71.9018L17.5891 71.5667C17.8086 71.2961 17.9862 70.9549 18.1218 70.543C18.2574 70.1312 18.317 69.7058 18.3007 69.2668C18.2858 68.8672 18.2279 68.5446 18.1269 68.299C18.0259 68.0534 17.8946 67.8746 17.733 67.7625C17.5648 67.6507 17.3791 67.5985 17.176 67.6061C16.9402 67.6149 16.7531 67.7006 16.6148 67.8632C16.4763 68.0192 16.369 68.2233 16.2931 68.4755C16.2104 68.7213 16.1418 68.9928 16.0872 69.2901C16.0327 69.5874 15.9684 69.8883 15.8944 70.1929C15.8137 70.4911 15.7091 70.7673 15.5808 71.0214C15.4522 71.2689 15.2761 71.4723 15.0524 71.6315C14.8221 71.791 14.5235 71.8775 14.1566 71.8912C13.8028 71.9043 13.4751 71.8247 13.1734 71.6522C12.865 71.4734 12.6151 71.194 12.4238 70.814C12.2258 70.4277 12.1155 69.9332 12.0931 69.3304C12.0782 68.9307 12.1159 68.5324 12.2061 68.1354C12.2963 67.7384 12.4343 67.3921 12.6202 67.0965L13.4185 67.3916C13.2329 67.6937 13.1036 68.0102 13.0306 68.3409C12.951 68.6719 12.917 68.9914 12.9285 69.2993C12.9428 69.6859 13.0038 70.0018 13.1113 70.2472C13.2189 70.4925 13.3567 70.6711 13.5249 70.7829C13.6929 70.8882 13.8784 70.9371 14.0815 70.9295C14.3239 70.9205 14.5144 70.838 14.6529 70.6819C14.7912 70.5193 14.8984 70.3152 14.9746 70.0696C15.0505 69.8175 15.119 69.5426 15.1801 69.2451C15.2347 68.9478 15.2991 68.6502 15.3733 68.3522C15.4472 68.0477 15.5485 67.7716 15.6771 67.5241C15.8054 67.27 15.9814 67.0633 16.2051 66.9041C16.4289 66.7449 16.7209 66.6586 17.0812 66.6452C17.4285 66.6322 17.7563 66.7152 18.0648 66.894C18.3667 67.073 18.6168 67.359 18.8151 67.7518C19.0067 68.1383 19.1136 68.633 19.136 69.2358Z" fill="#1d3557" />
	<path d="M19.2665 63.1541C19.2246 63.6835 19.0727 64.1483 18.8108 64.5485C18.5494 64.9422 18.21 65.2408 17.7927 65.4445C17.3754 65.6482 16.9085 65.7296 16.3922 65.6887C15.8758 65.6478 15.4276 65.4939 15.0476 65.227C14.6675 64.9602 14.3827 64.612 14.1931 64.1827C13.9975 63.7462 13.9207 63.2633 13.9626 62.7339C13.9999 62.2633 14.1278 61.8525 14.3463 61.5015C14.5589 61.1435 14.8562 60.8777 15.2382 60.704L15.6423 61.4562C15.3739 61.606 15.1711 61.8004 15.0338 62.0394C14.8904 62.2714 14.8076 62.5279 14.7854 62.809C14.7584 63.1488 14.8095 63.4587 14.9386 63.7386C15.0677 64.0185 15.2633 64.2477 15.5254 64.4263C15.7809 64.6044 16.095 64.7082 16.4675 64.7377C16.8401 64.7673 17.1698 64.7145 17.4567 64.5794C17.7437 64.4442 17.9729 64.2486 18.1445 63.9926C18.3161 63.7365 18.4153 63.4386 18.4422 63.0987C18.4645 62.8176 18.4264 62.5515 18.3279 62.3004C18.2234 62.0422 18.0504 61.818 17.809 61.6279L18.3167 60.9479C18.6601 61.179 18.9151 61.4886 19.0816 61.8767C19.2422 62.2577 19.3038 62.6835 19.2665 63.1541Z" fill="#1d3557" />
	<path d="M19.581 59.9664L14.4488 59.056L14.6069 58.1651L16.0013 58.4125L15.6372 58.4378C15.3073 58.2327 15.0786 57.9458 14.9509 57.5769C14.8233 57.208 14.803 56.7782 14.89 56.2876L15.7906 56.4473C15.7772 56.4849 15.7671 56.5231 15.7603 56.5618C15.7545 56.5941 15.7488 56.6264 15.7431 56.6587C15.6549 57.1558 15.7335 57.5759 15.9789 57.9191C16.2244 58.2623 16.6279 58.4837 17.1895 58.5833L19.7459 59.0368L19.581 59.9664Z" fill="#1d3557" />
	<path d="M20.928 54.1467C20.7847 54.6512 20.5472 55.0677 20.2154 55.3961C19.8836 55.7245 19.4932 55.9476 19.044 56.0654C18.5884 56.1814 18.1147 56.1696 17.6228 56.0299C17.1245 55.8885 16.7152 55.6496 16.395 55.3133C16.0747 54.977 15.8628 54.5829 15.7594 54.131C15.6497 53.6772 15.6664 53.1981 15.8097 52.6935C15.9512 52.1953 16.1878 51.7819 16.5196 51.4536C16.8468 51.1171 17.2342 50.8931 17.6816 50.7816C18.1245 50.662 18.5982 50.6738 19.1028 50.8171C19.601 50.9585 20.0103 51.1974 20.3306 51.5337C20.6526 51.8637 20.8676 52.2587 20.9756 52.7187C21.0853 53.1724 21.0694 53.6484 20.928 54.1467ZM20.1333 53.921C20.2246 53.5994 20.2335 53.2918 20.1601 52.9983C20.0884 52.6986 19.9408 52.4385 19.717 52.2183C19.487 51.9962 19.1954 51.835 18.8422 51.7347C18.4827 51.6327 18.1531 51.6175 17.8533 51.6891C17.5472 51.759 17.2849 51.9026 17.0664 52.12C16.8497 52.3311 16.6957 52.5975 16.6044 52.9192C16.5131 53.2408 16.5041 53.5484 16.5776 53.8419C16.651 54.1353 16.7987 54.3954 17.0206 54.6219C17.2362 54.8467 17.5238 55.0102 17.8833 55.1122C18.2365 55.2125 18.5702 55.2255 18.8844 55.1511C19.1923 55.0749 19.4545 54.9313 19.6712 54.7202C19.8879 54.5091 20.0419 54.2427 20.1333 53.921Z" fill="#1d3557" />
	<path d="M22.0803 50.4509L15.2695 47.8311L15.6085 46.9499L22.4193 49.5697L22.0803 50.4509Z" fill="#1d3557" />
	<path d="M23.0552 48.0561L16.3945 45.0752L16.7802 44.2134L23.4409 47.1943L23.0552 48.0561Z" fill="#1d3557" />
	<path d="M25.3751 43.3327L19.6611 39.5464L21.2568 37.1384C21.6607 36.5289 22.1356 36.0722 22.6815 35.7683C23.2311 35.459 23.8056 35.3189 24.405 35.348C25.008 35.3716 25.5924 35.571 26.1584 35.946C26.7243 36.3211 27.1357 36.7816 27.3925 37.3277C27.653 37.8683 27.7478 38.452 27.6771 39.0787C27.6101 39.6999 27.3746 40.3152 26.9707 40.9247L25.3751 43.3327ZM25.2058 42.0459L26.2281 40.5031C26.5418 40.0297 26.7225 39.562 26.7701 39.1002C26.8213 38.6329 26.7495 38.1977 26.5546 37.7944C26.3543 37.3876 26.0419 37.0436 25.6175 36.7623C25.1876 36.4774 24.749 36.3238 24.3017 36.3015C23.8544 36.2793 23.4256 36.3827 23.0152 36.612C22.6085 36.8359 22.2482 37.1845 21.9345 37.6579L20.9122 39.2007L25.2058 42.0459Z" fill="#1d3557" />
	<path d="M31.3741 35.2169C31.025 35.6084 30.6295 35.8794 30.1876 36.03C29.7458 36.1807 29.2971 36.2109 28.8415 36.1209C28.3811 36.0264 27.96 35.809 27.5783 35.4686C27.1918 35.1239 26.9278 34.7303 26.7865 34.2879C26.6451 33.8456 26.6265 33.3985 26.7307 32.9468C26.8301 32.4907 27.0543 32.0669 27.4034 31.6755C27.7482 31.2889 28.1415 31.0203 28.5833 30.8697C29.0246 30.7098 29.4709 30.6774 29.9221 30.7723C30.3728 30.858 30.7938 31.0754 31.1853 31.4246C31.5718 31.7693 31.8358 32.1629 31.9771 32.6053C32.1229 33.0427 32.1439 33.492 32.0402 33.953C31.9409 34.4091 31.7188 34.8304 31.3741 35.2169ZM30.7576 34.6671C30.9801 34.4175 31.1224 34.1447 31.1845 33.8486C31.2508 33.5476 31.2315 33.2492 31.1263 32.9534C31.0163 32.6532 30.8243 32.3809 30.5503 32.1365C30.2714 31.8877 29.9814 31.7302 29.6805 31.6638C29.3746 31.593 29.0759 31.6078 28.7844 31.708C28.4973 31.8034 28.2425 31.9758 28.0199 32.2253C27.7974 32.4749 27.6551 32.7477 27.593 33.0438C27.531 33.3399 27.5504 33.6383 27.6512 33.939C27.747 34.2354 27.9344 34.5079 28.2133 34.7567C28.4873 35.0011 28.7819 35.1584 29.097 35.2286C29.4073 35.2945 29.706 35.2797 29.9931 35.1844C30.2802 35.089 30.535 34.9166 30.7576 34.6671Z" fill="#1d3557" />
	<path d="M34.6471 31.7247L29.8193 28.9512L30.5084 28.3784L34.8549 30.9118L34.5292 31.1825L32.8863 26.402L33.4997 25.8922L37.8688 28.4067L37.5507 28.6711L35.885 23.9095L36.5363 23.3682L38.3728 28.628L37.6761 29.2071L33.6546 26.9414L33.8667 26.7651L35.3437 31.1457L34.6471 31.7247Z" fill="#1d3557" />
	<path d="M40.1669 21.182C40.5324 20.9627 40.895 20.8408 41.2548 20.8161C41.6203 20.788 41.9677 20.8701 42.2972 21.0624C42.6266 21.2547 42.9229 21.5701 43.186 22.0086L44.729 24.5808L43.9194 25.0665L42.432 22.5871C42.1723 22.1542 41.8698 21.8922 41.5246 21.8011C41.1851 21.7066 40.8241 21.774 40.4418 22.0034C40.1551 22.1754 39.9386 22.3817 39.7924 22.6223C39.6462 22.863 39.5799 23.1283 39.5933 23.4184C39.6124 23.7051 39.7198 24.0115 39.9154 24.3376L41.2966 26.64L40.487 27.1257L37.8056 22.6559L38.5814 22.1905L39.3049 23.3965L38.9862 23.1519C38.957 22.7718 39.0453 22.4092 39.251 22.064C39.4568 21.7188 39.7621 21.4248 40.1669 21.182Z" fill="#1d3557" />
	<path d="M52.8441 21.2473C52.3815 21.3983 51.9337 21.3707 51.5008 21.1646C51.0625 20.942 50.7625 20.5829 50.6007 20.0872C50.439 19.5915 50.4721 19.1328 50.7001 18.711C50.9281 18.2892 51.2735 18.0029 51.7361 17.8519C52.1822 17.7063 52.6135 17.7393 53.0298 17.9508C53.4627 18.1569 53.7601 18.5078 53.9218 19.0035C54.0836 19.4991 54.0531 19.9661 53.8305 20.4044C53.619 20.8208 53.2902 21.1018 52.8441 21.2473Z" fill="#1d3557" />
</svg>
