<svg xmlns="http://www.w3.org/2000/svg" viewBox="0 0 200 200"><defs><style>.cls-1{fill:#e63946;}.cls-2{font-size:17.88px;font-family:Montserrat-SemiBold, Montserrat;font-weight:600;}.cls-2,.cls-3{fill:#fff;}</style></defs><g id="Layer_2" data-name="Layer 2"><polygon class="cls-1" points="100 0 123.2 13.4 150 13.4 163.4 36.6 186.6 50 186.6 76.8 200 100 186.6 123.2 186.6 150 163.4 163.4 150 186.6 123.2 186.6 100 200 76.8 186.6 50 186.6 36.6 163.4 13.4 150 13.4 123.2 0 100 13.4 76.8 13.4 50 36.6 36.6 50 13.4 76.8 13.4 100 0"/><text class="cls-2" transform="matrix(0.9, 0.43, -0.43, 0.9, 122.16, 40.34)">T</text><text class="cls-2" transform="matrix(0.79, 0.62, -0.62, 0.79, 134.43, 46.42)">E</text><text class="cls-2" transform="matrix(0.61, 0.79, -0.79, 0.61, 145.99, 55.77)">N</text><text class="cls-2" transform="translate(156.15 69.8) rotate(67.73)">A</text><text class="cls-2" transform="translate(162.01 84.91) rotate(82.91)">N</text><text class="cls-2" transform="translate(163.59 102.19) rotate(96.75)">T</text><text class="cls-2" transform="matrix(-0.29, 0.96, -0.96, -0.29, 161.45, 115.84)"> </text><text class="cls-2" transform="matrix(-0.47, 0.88, -0.88, -0.47, 159.33, 123.52)">N</text><text class="cls-2" transform="translate(150.7 138.54) rotate(132.65)">E</text><text class="cls-2" transform="matrix(-0.82, 0.57, -0.57, -0.82, 140.31, 149.22)">T</text><text class="cls-2" transform="translate(129.39 157.12) rotate(161.95)">W</text><text class="cls-2" transform="translate(107.5 163.52) rotate(-179.07)">O</text><text class="cls-2" transform="translate(89.66 162.9) rotate(-164.81)">R</text><text class="cls-2" transform="translate(74.38 158.37) rotate(-150.39)">K</text><text class="cls-2" transform="matrix(-0.76, -0.65, 0.65, -0.76, 60.78, 149.88)"> </text><text class="cls-2" transform="translate(54.73 144.45) rotate(-132.27)"> </text><text class="cls-2" transform="translate(49.28 138.6) rotate(-121.48)">C</text><text class="cls-2" transform="translate(41.32 125.21) rotate(-106.45)">O</text><text class="cls-2" transform="translate(36.76 107.93) rotate(-91.27)">C</text><text class="cls-2" transform="translate(36.61 92.33) rotate(-76.38)">O</text><text class="cls-2" transform="matrix(0.49, -0.87, 0.87, 0.49, 41.25, 75.09)">U</text><text class="cls-2" transform="matrix(0.7, -0.71, 0.71, 0.7, 49.87, 60.52)">N</text><text class="cls-2" transform="matrix(0.86, -0.52, 0.52, 0.86, 62.47, 48.59)">S</text><text class="cls-2" transform="translate(74.75 41.52) rotate(-17.94)">E</text><text class="cls-2" transform="translate(89.03 37.32) rotate(-5.03)">L</text><circle class="cls-3" cx="100" cy="100" r="4.95"/></g></svg>